<?xml version="1.0" standalone="no"?>
<!DOCTYPE svg PUBLIC "-//W3C//DTD SVG 20010904//EN"
 "http://www.w3.org/TR/2001/REC-SVG-20010904/DTD/svg10.dtd">
<svg version="1.0" xmlns="http://www.w3.org/2000/svg"
 width="640.000000pt" height="641.000000pt" viewBox="0 0 640.000000 641.000000"
 preserveAspectRatio="xMidYMid meet">

<g transform="translate(0.000000,641.000000) scale(0.100000,-0.100000)"
fill="#000000" stroke="none">
<path d="M0 3205 l0 -3205 3200 0 3200 0 0 3205 0 3205 -3200 0 -3200 0 0
-3205z m1975 1680 c18 -17 25 -35 25 -61 0 -36 -14 -52 -310 -349 l-310 -310
310 -311 c294 -294 310 -312 310 -346 0 -48 -40 -88 -87 -88 -29 0 -68 35
-387 351 -239 237 -356 360 -359 378 -3 14 1 37 8 51 8 14 169 179 358 368
327 324 347 342 381 342 26 0 44 -7 61 -25z m925 -657 c0 -287 -2 -318 -21
-391 -36 -131 -113 -208 -242 -241 -117 -29 -281 -16 -370 30 -41 22 -106 83
-123 117 -26 49 -44 119 -44 170 l0 47 145 0 145 0 0 -30 c0 -44 24 -96 53
-115 18 -11 42 -15 84 -13 l58 3 8 70 c4 38 6 153 5 255 l-3 185 -145 5 -145
5 -3 108 -3 107 301 0 300 0 0 -312z m405 7 c1 -263 3 -306 19 -348 27 -70 55
-88 135 -85 64 3 66 4 72 33 4 17 7 182 8 368 l1 337 150 0 150 0 0 -335 c0
-202 -4 -354 -11 -385 -22 -104 -103 -184 -220 -216 -30 -8 -104 -17 -165 -21
-193 -10 -315 32 -377 131 -53 84 -58 123 -64 489 l-6 338 154 -3 153 -3 1
-300z m1241 -451 c38 -18 54 -65 36 -112 -6 -15 -15 -43 -21 -62 -5 -19 -19
-66 -31 -105 -12 -38 -30 -99 -40 -135 -11 -36 -37 -126 -60 -200 -23 -74 -47
-155 -55 -180 -7 -25 -50 -166 -95 -315 -45 -148 -89 -297 -97 -330 -30 -127
-65 -166 -132 -146 -48 14 -74 50 -65 88 4 16 29 102 56 193 28 91 59 194 69
230 11 36 26 85 34 110 7 25 31 106 53 180 23 74 45 149 50 165 6 17 22 71 37
120 14 50 30 101 35 115 5 14 30 97 56 185 54 184 58 193 87 205 32 13 45 12
83 -6z m227 -135 c33 -18 705 -696 712 -719 4 -12 4 -31 1 -43 -3 -12 -164
-181 -358 -374 -322 -321 -357 -353 -387 -353 -39 0 -91 46 -91 82 0 13 10 38
23 54 12 17 151 160 310 319 158 158 287 290 287 294 0 3 -137 143 -305 311
-204 204 -306 313 -310 331 -11 50 32 106 83 108 7 1 23 -4 35 -10z m-2076
-383 c79 -25 143 -73 181 -136 39 -66 51 -105 59 -186 l5 -61 -63 -6 c-35 -4
-103 -10 -150 -13 l-86 -7 -7 42 c-11 71 -51 139 -92 156 -46 19 -134 19 -160
1 -18 -13 -19 -28 -19 -208 0 -176 2 -197 21 -232 33 -64 63 -80 155 -85 90
-4 84 -9 94 92 l7 67 144 0 c113 0 146 -3 150 -14 7 -19 -22 -139 -45 -184
-64 -125 -214 -189 -421 -179 -58 3 -128 12 -157 21 -118 37 -194 118 -235
250 -19 59 -23 95 -23 211 0 86 5 161 14 195 39 157 121 242 274 285 69 20
281 14 354 -9z m922 8 c80 -18 163 -64 203 -114 36 -46 69 -139 75 -216 l5
-61 -53 -6 c-30 -4 -97 -9 -149 -13 l-95 -7 -13 59 c-16 76 -44 122 -87 140
-46 19 -149 19 -164 0 -18 -21 -25 -312 -10 -384 21 -105 69 -142 183 -142 76
0 74 -2 84 91 l7 64 143 3 c120 2 143 0 148 -13 3 -8 -1 -49 -11 -90 -27 -122
-99 -202 -224 -248 -76 -28 -298 -31 -380 -4 -143 45 -223 137 -252 288 -16
88 -15 300 4 374 37 153 120 239 268 279 72 20 234 20 318 0z m-3189 -200 c0
-8 -4 -12 -10 -9 -5 3 -10 10 -10 16 0 5 5 9 10 9 6 0 10 -7 10 -16z m-332
-544 c-3 -46 -10 -50 -26 -15 -13 29 -6 55 14 55 11 0 14 -11 12 -40z m40
-105 c-3 -3 -9 2 -12 12 -6 14 -5 15 5 6 7 -7 10 -15 7 -18z m9 -240 c9 -22
24 -46 32 -53 14 -12 14 -15 -4 -29 -19 -14 -15 -15 45 -10 65 6 65 6 35 -10
-16 -9 -46 -22 -65 -29 l-35 -13 43 -1 c23 0 42 -4 42 -10 0 -5 -9 -10 -19
-10 -28 0 -35 -17 -17 -42 9 -12 16 -32 16 -45 0 -12 5 -25 10 -28 6 -3 10
-30 10 -58 0 -29 7 -99 15 -157 16 -118 19 -240 6 -240 -5 0 -12 -67 -16 -150
-4 -82 -11 -153 -17 -156 -6 -4 -6 -9 2 -14 10 -6 8 -15 -9 -35 -11 -15 -21
-36 -21 -46 0 -11 -5 -19 -11 -19 -8 0 -10 -14 -6 -39 3 -26 0 -46 -9 -58 -7
-10 -14 -30 -14 -45 0 -15 -4 -29 -10 -33 -5 -3 -17 -30 -26 -61 l-18 -54 -17
28 c-17 26 -18 76 -16 767 2 639 4 743 17 763 15 22 15 22 28 -25 7 -26 20
-66 29 -88z m2619 -270 c2 -16 -2 -25 -11 -25 -21 0 -27 17 -15 41 14 24 22
19 26 -16z m747 -5 c7 0 8 -3 1 -10 -12 -12 -56 -1 -48 12 3 5 13 7 21 4 8 -3
20 -6 26 -6z m-2225 -70 c4 -76 -3 -110 -22 -110 -11 0 -15 19 -18 74 -4 92
-1 108 20 104 13 -3 18 -17 20 -68z m802 68 c12 -61 10 -131 -3 -152 l-16 -23
-308 -1 c-169 -1 -323 -1 -341 -1 -25 -1 -35 -6 -39 -20 -6 -24 -62 -46 -77
-31 -7 7 -2 17 16 33 23 18 28 31 30 77 2 41 7 55 18 55 10 0 16 -12 18 -37 3
-32 7 -38 27 -38 20 0 24 6 27 38 2 25 8 37 18 37 10 0 16 -12 18 -37 3 -34 6
-38 32 -38 26 0 29 4 32 38 4 51 32 51 36 1 4 -43 10 -46 122 -44 70 1 75 2
80 25 7 31 34 33 38 3 5 -36 50 -32 54 4 5 41 38 44 38 4 0 -16 4 -32 9 -35
18 -12 41 7 41 33 0 14 4 32 9 40 14 22 31 3 31 -33 0 -25 5 -35 20 -39 28 -7
40 19 40 87 0 43 3 56 15 56 8 0 15 -1 15 -2z m78 -68 c4 -77 -3 -110 -23
-110 -12 0 -15 17 -15 91 0 81 2 90 18 87 14 -3 18 -16 20 -68z m692 -9 c0
-93 -8 -103 -76 -99 -50 3 -72 25 -35 35 25 6 25 9 7 61 -9 25 -11 44 -5 47
16 11 29 -5 40 -51 16 -61 29 -55 29 14 0 61 4 72 27 72 10 0 13 -20 13 -79z
m68 -8 c-2 -70 -6 -88 -18 -88 -12 0 -16 16 -18 74 -3 84 1 101 23 101 13 0
15 -13 13 -87z m500 15 c3 -76 -9 -108 -40 -108 -12 0 -32 -12 -44 -27 -44
-55 -159 -27 -152 36 4 37 36 40 40 4 3 -25 8 -28 41 -31 36 -3 37 -2 31 22
-5 23 -3 25 40 31 l46 7 0 70 c0 61 2 69 18 66 14 -3 18 -16 20 -70z m160 -1
c4 -93 -6 -109 -70 -105 -30 2 -53 8 -56 16 -2 6 3 12 12 12 24 0 27 15 11 61
-10 26 -12 46 -6 52 15 15 27 1 41 -48 7 -25 17 -45 21 -45 5 0 9 26 9 58 0
32 3 62 7 66 17 17 28 -6 31 -67z m70 -14 c-2 -70 -6 -88 -18 -88 -12 0 -16
16 -18 74 -3 84 1 101 23 101 13 0 15 -13 13 -87z m660 14 c3 -78 -5 -74 177
-76 150 -2 197 5 193 27 -2 10 -16 19 -32 22 -38 7 -45 27 -11 36 39 10 74
-10 82 -46 6 -35 15 -43 37 -34 11 4 16 23 18 72 2 52 6 67 18 67 12 0 16 -16
18 -73 2 -43 -2 -79 -8 -87 -15 -18 -495 -22 -516 -4 -15 12 -21 149 -7 163
17 17 28 -6 31 -67z m570 -14 c-2 -70 -6 -88 -18 -88 -12 0 -16 16 -18 74 -3
84 1 101 23 101 13 0 15 -13 13 -87z m442 22 c0 -53 3 -66 19 -74 21 -12 181
-13 198 -3 6 4 13 23 15 42 5 53 32 47 36 -8 5 -68 -2 -72 -147 -72 -69 0
-131 4 -138 8 -12 7 -16 44 -14 125 1 35 5 47 16 47 12 0 15 -14 15 -65z
m-4123 -27 c-2 -80 -3 -83 -26 -86 -14 -2 -37 -17 -52 -33 -29 -31 -81 -39
-120 -18 -28 14 -42 55 -28 80 14 27 33 19 39 -17 4 -24 10 -30 38 -32 31 -3
33 -1 30 25 -3 26 -1 28 40 31 41 3 42 4 42 37 0 19 5 37 10 40 7 4 7 12 0 24
-10 20 -4 31 16 31 9 0 12 -22 11 -82z m4389 71 c10 -17 -13 -36 -27 -22 -12
12 -4 33 11 33 5 0 12 -5 16 -11z m-3256 -59 c0 -11 -7 -20 -15 -20 -15 0 -21
21 -8 33 12 13 23 7 23 -13z m72 -28 l3 -37 79 -2 c85 -4 106 5 106 43 0 28
32 48 63 38 28 -9 37 -22 37 -60 0 -50 -12 -54 -154 -54 -127 0 -131 -1 -151
-25 -26 -33 -104 -38 -136 -9 -26 23 -23 87 4 92 13 3 17 -3 17 -25 0 -42 13
-55 51 -51 34 3 34 3 37 58 3 69 8 81 26 74 8 -3 16 -21 18 -42z m684 34 c15
-11 19 -26 19 -69 0 -63 -16 -87 -56 -87 -35 0 -38 15 -7 31 18 10 19 13 8 17
-51 16 -67 79 -28 106 28 20 39 20 64 2z m854 -30 c0 -30 4 -34 30 -38 35 -5
46 0 51 27 6 28 33 25 37 -3 5 -35 46 -26 50 11 4 31 32 38 32 8 0 -11 7 -27
16 -36 23 -22 44 -2 44 41 0 37 10 43 30 19 14 -17 7 -84 -10 -95 -6 -3 -110
-7 -232 -8 -192 -1 -224 1 -240 15 -21 19 -24 56 -5 72 17 14 27 4 27 -25 0
-27 26 -37 86 -32 35 3 39 6 42 33 7 61 42 70 42 11z m1157 28 c2 -6 -5 -14
-17 -17 -29 -7 -25 -34 8 -49 37 -18 38 -67 2 -85 -30 -16 -87 -8 -113 15 -22
20 -19 66 5 70 12 2 17 -5 20 -25 3 -24 8 -28 41 -31 46 -4 50 16 7 40 -21 12
-30 25 -30 42 0 40 66 74 77 40z m131 0 c16 -11 22 -25 22 -53 0 -43 -10 -51
-66 -51 -42 0 -48 27 -6 32 34 4 44 43 13 53 -21 6 -26 16 -14 28 10 11 27 8
51 -9z m-4709 -48 c16 -20 3 -46 -24 -46 -25 0 -34 15 -27 43 5 20 35 23 51 3z
m949 -83 c-4 -22 -22 -20 -26 1 -2 10 3 16 13 16 10 0 15 -7 13 -17z m101 8
c2 -1 -1 -7 -7 -14 -18 -21 -91 -9 -77 13 4 7 60 7 84 1z m2279 -8 c-4 -22
-22 -20 -26 1 -2 10 3 16 13 16 10 0 15 -7 13 -17z m-2758 -62 c0 -15 -8 -18
-40 -18 -31 0 -40 3 -40 17 0 14 9 18 40 18 32 1 40 -3 40 -17z m2205 0 c0 -9
-12 -14 -33 -15 -35 -1 -48 7 -38 23 9 14 71 7 71 -8z m1780 0 c0 -15 -62 -24
-71 -10 -10 17 6 27 38 25 20 -1 33 -7 33 -15z m-3969 -84 c32 -27 28 -59 -5
-50 -12 3 -21 10 -21 15 0 5 -12 8 -27 6 -24 -3 -28 -8 -31 -40 -4 -49 24 -67
59 -37 41 35 66 1 29 -39 -29 -30 -89 -30 -118 1 -30 32 -36 68 -18 111 24 57
85 73 132 33z m193 -14 c19 -22 22 -34 18 -72 -13 -117 -167 -107 -167 11 0
51 6 62 45 83 38 19 73 12 104 -22z m3092 27 c37 0 66 -39 50 -68 -7 -13 -7
-30 1 -56 8 -24 8 -40 1 -47 -16 -16 -42 1 -45 29 -2 21 -8 27 -28 27 -19 0
-26 -6 -28 -25 -5 -34 -18 -46 -35 -32 -14 12 -22 156 -10 176 3 4 19 5 35 2
17 -3 43 -6 59 -6z m-2966 -42 c15 -53 21 -54 35 -3 12 42 15 45 47 45 l34 0
-3 -87 c-3 -74 -6 -88 -20 -91 -14 -3 -18 4 -18 32 0 44 -16 56 -25 17 -13
-62 -45 -60 -69 4 l-15 40 0 -43 c-1 -29 -6 -45 -17 -49 -25 -9 -34 16 -34
100 l0 78 37 -3 c34 -3 39 -7 48 -40z m277 25 c39 -36 6 -103 -51 -103 -25 0
-30 -4 -33 -27 -2 -20 -9 -28 -23 -28 -18 0 -20 8 -23 74 -2 41 -1 80 2 88 8
20 105 17 128 -4z m88 -53 c4 -50 9 -66 22 -68 24 -5 40 33 36 86 -3 42 -1 47
20 50 21 3 22 0 22 -63 0 -75 -11 -102 -45 -115 -30 -11 -82 5 -95 30 -6 10
-10 49 -10 85 0 63 1 66 23 63 20 -3 23 -10 27 -68z m270 50 c0 -15 -7 -20
-25 -20 -24 0 -25 -2 -25 -65 0 -63 -1 -65 -25 -65 -24 0 -25 2 -25 65 0 63
-1 65 -25 65 -18 0 -25 5 -25 20 0 18 7 20 75 20 68 0 75 -2 75 -20z m160 0
c0 -17 -7 -20 -45 -20 -33 0 -45 -4 -45 -15 0 -11 11 -15 40 -15 29 0 40 -4
40 -15 0 -14 -8 -17 -55 -19 -38 -2 -22 -29 20 -33 46 -5 49 -7 41 -28 -5 -13
-18 -15 -68 -13 l-63 3 -3 88 -3 87 71 0 c63 0 70 -2 70 -20z m162 3 c20 -18
23 -44 7 -60 -8 -8 -8 -17 0 -31 14 -26 14 -59 1 -67 -15 -9 -38 12 -42 38 -2
16 -10 22 -28 22 -20 0 -26 -6 -30 -30 -3 -16 -9 -29 -13 -27 -4 1 -11 2 -17
2 -6 0 -10 35 -10 85 l0 85 57 0 c38 0 62 -5 75 -17z m202 -5 c8 -13 8 -23 -2
-38 -18 -29 -15 -42 11 -38 19 3 22 -1 19 -24 -1 -14 2 -29 8 -33 24 -15 6
-21 -54 -20 -37 0 -70 6 -80 14 -20 17 -21 55 -1 71 9 7 13 21 10 31 -4 10 -1
28 5 39 14 26 67 24 84 -2z m234 10 c23 -23 14 -41 -15 -34 -16 4 -32 8 -38 9
-5 1 -12 -2 -15 -8 -3 -5 9 -15 26 -20 46 -15 65 -35 62 -64 -6 -52 -113 -67
-139 -19 -15 28 8 42 38 23 28 -18 53 -19 53 -2 0 7 -19 19 -42 27 -35 12 -44
20 -46 43 -2 16 2 35 9 43 14 17 90 19 107 2z m92 -13 c5 -14 14 -25 19 -25 5
0 16 11 25 25 15 23 56 36 56 18 0 -5 -12 -28 -27 -53 -14 -25 -29 -61 -32
-80 -4 -21 -12 -35 -21 -35 -9 0 -17 14 -20 35 -4 19 -18 56 -33 81 -33 56
-33 59 -2 59 18 0 28 -7 35 -25z m249 11 c6 -7 11 -27 11 -42 -1 -16 2 -42 6
-57 10 -41 -15 -63 -74 -64 -26 -1 -53 2 -59 5 -9 6 -18 118 -14 165 2 13 118
8 130 -7z m186 -6 c0 -11 -13 -16 -48 -18 -60 -4 -59 -26 2 -30 54 -4 50 -24
-8 -36 -54 -12 -47 -30 13 -34 38 -3 47 -6 44 -20 -3 -14 -15 -17 -68 -17
l-65 0 -3 88 -3 88 68 -3 c52 -2 68 -6 68 -18z m156 10 c15 -9 18 -20 17 -63
-1 -29 1 -62 5 -73 6 -17 3 -23 -12 -27 -25 -6 -31 0 -31 29 0 14 -8 25 -20
29 -27 9 -40 -1 -40 -30 0 -28 -12 -38 -34 -29 -13 5 -16 22 -16 83 0 43 3 81
7 84 10 11 102 8 124 -3z m215 2 c6 -4 13 -15 17 -24 5 -14 1 -18 -16 -18 -13
0 -28 5 -34 11 -11 11 -33 5 -33 -10 0 -4 18 -13 40 -20 64 -19 75 -72 20
-101 -40 -22 -110 1 -110 36 0 16 36 19 45 4 9 -14 45 -12 45 3 0 7 -19 21
-42 32 -47 22 -60 52 -33 79 17 16 81 22 101 8z m192 -9 c-2 -13 -15 -19 -46
-21 -28 -2 -42 -8 -42 -18 0 -10 12 -14 40 -14 29 0 40 -4 40 -15 0 -14 -6
-16 -57 -19 -13 -1 -23 -4 -23 -8 0 -5 0 -13 0 -19 0 -7 12 -10 33 -7 39 6 57
1 57 -17 0 -18 -23 -25 -81 -25 -31 0 -51 5 -54 13 -7 17 -13 156 -7 162 3 3
36 5 74 5 61 0 69 -2 66 -17z m164 0 c38 -34 6 -60 -36 -28 -31 23 -58 2 -54
-42 4 -46 29 -64 56 -40 37 34 68 14 39 -25 -19 -24 -63 -32 -98 -18 -51 22
-66 96 -28 144 16 20 29 26 61 26 25 0 49 -7 60 -17z m88 -42 c0 -61 16 -89
45 -77 11 4 15 22 15 71 0 63 1 66 23 63 20 -3 22 -8 22 -71 0 -60 -3 -71 -24
-88 -29 -24 -72 -24 -101 -1 -18 14 -24 32 -28 75 -5 68 1 87 28 87 18 0 20
-6 20 -59z m368 -28 c3 -83 3 -83 -23 -83 -25 0 -25 1 -25 86 0 83 1 85 23 82
20 -3 22 -9 25 -85z m238 57 l18 -29 18 29 c10 17 26 30 38 30 26 0 25 -12 -5
-60 -14 -22 -25 -53 -25 -69 0 -31 -22 -57 -40 -46 -5 3 -10 20 -10 36 0 40
-49 124 -63 110 -6 -6 -19 -11 -29 -11 -15 0 -18 -9 -18 -60 0 -48 -4 -61 -19
-69 -27 -15 -31 -5 -31 66 0 61 -1 63 -25 63 -18 0 -25 5 -25 20 0 19 7 20 99
20 l100 0 17 -30z m298 8 c9 -12 16 -26 16 -30 0 -13 -33 -9 -53 7 -40 30 -81
-27 -52 -71 18 -28 37 -31 55 -9 16 19 50 20 50 1 0 -22 -49 -56 -82 -56 -69
0 -106 104 -56 157 30 32 100 33 122 1z m86 -43 l0 -65 33 0 c40 0 62 -17 46
-37 -13 -15 -105 -18 -113 -4 -5 8 -9 98 -7 149 1 15 7 22 21 22 18 0 20 -7
20 -65z m150 11 c0 -67 7 -86 31 -86 20 0 27 19 31 90 3 39 6 45 27 48 23 4
23 3 19 -68 -3 -61 -8 -75 -27 -91 -29 -24 -72 -24 -101 -1 -18 14 -24 32 -28
75 -5 68 1 87 28 87 18 0 20 -6 20 -54z m270 39 c7 -9 10 -25 6 -41 -4 -14 -2
-32 4 -39 18 -22 7 -58 -20 -72 -14 -7 -45 -12 -70 -11 l-45 3 -7 80 c-3 44
-4 83 -1 88 8 14 120 8 133 -8z"/>
<path d="M2634 1795 c-9 -23 14 -45 26 -25 5 8 8 19 7 24 -6 17 -27 18 -33 1z"/>
<path d="M3052 1788 c2 -13 8 -23 13 -23 6 0 11 10 13 23 2 15 -2 22 -13 22
-11 0 -15 -7 -13 -22z"/>
<path d="M1217 1523 c-4 -3 -7 -21 -7 -38 0 -40 24 -64 48 -48 35 22 26 93
-12 93 -12 0 -26 -3 -29 -7z"/>
<path d="M4350 1516 c0 -20 16 -29 40 -21 32 10 25 35 -10 35 -19 0 -30 -5
-30 -14z"/>
<path d="M1630 1510 c0 -15 7 -20 25 -20 18 0 25 5 25 20 0 15 -7 20 -25 20
-18 0 -25 -5 -25 -20z"/>
<path d="M2304 1519 c-10 -17 12 -32 35 -24 29 9 27 35 -3 35 -14 0 -28 -5
-32 -11z"/>
<path d="M2540 1530 c0 -5 5 -10 10 -10 6 0 10 5 10 10 0 6 -4 10 -10 10 -5 0
-10 -4 -10 -10z"/>
<path d="M2522 1448 c5 -15 28 -18 29 -3 0 6 -7 12 -17 13 -10 3 -15 -1 -12
-10z"/>
<path d="M3090 1514 c0 -9 7 -14 17 -12 25 5 28 28 4 28 -12 0 -21 -6 -21 -16z"/>
<path d="M3086 1455 c-6 -18 16 -30 39 -21 8 3 15 12 15 21 0 20 -46 20 -54 0z"/>
<path d="M3430 1516 c0 -20 16 -29 40 -21 32 10 25 35 -10 35 -19 0 -30 -5
-30 -14z"/>
<path d="M5492 1518 c7 -20 48 -23 48 -4 0 11 -9 16 -26 16 -16 0 -24 -5 -22
-12z"/>
<path d="M5495 1460 c-4 -7 -3 -16 3 -22 14 -14 47 -6 47 12 0 18 -40 26 -50
10z"/>
</g>
</svg>
